<?xml version="1.0" encoding="UTF-8"?>
<svg version="1.1" xmlns="http://www.w3.org/2000/svg" width="993" height="701">
<path d="M0 0 C327.69 0 655.38 0 993 0 C993 231.33 993 462.66 993 701 C665.31 701 337.62 701 0 701 C0 469.67 0 238.34 0 0 Z " fill="#5F8167" transform="translate(0,0)"/>
<path d="M0 0 C0.85207031 0.32742188 1.70414063 0.65484375 2.58203125 0.9921875 C14.32260564 6.05819913 23.07065008 15.92191485 29 27 C29.40863281 27.72574219 29.81726563 28.45148438 30.23828125 29.19921875 C33.57007763 35.75377091 34.217728 42.76398404 35 50 C35.5544278 50.17042816 36.10885559 50.34085632 36.68008423 50.51644897 C42.12212294 52.25049719 47.13557535 54.37018298 52.2109375 56.9765625 C52.94575348 57.34727875 53.68056946 57.717995 54.43765259 58.09994507 C56.75306267 59.26922239 59.06420013 60.4466419 61.375 61.625 C63.70793073 62.80903334 66.04173096 63.99130632 68.37661743 65.17147827 C69.82141992 65.9023314 71.2649781 66.63565095 72.7071228 67.37173462 C75.44819419 68.76280134 78.07892157 70.02630719 81 71 C80 74 80 74 78.0925293 75.19165039 C77.26148682 75.57313232 76.43044434 75.95461426 75.57421875 76.34765625 C74.6411792 76.78360107 73.70813965 77.2195459 72.74682617 77.66870117 C71.73724854 78.12865479 70.7276709 78.5886084 69.6875 79.0625 C67.59293351 80.03731003 65.49919942 81.01391038 63.40625 81.9921875 C62.34148437 82.4881543 61.27671875 82.98412109 60.1796875 83.49511719 C54.43541409 86.21376747 48.77730116 89.10423049 43.12182617 92.00219727 C42.34299072 92.39721436 41.56415527 92.79223145 40.76171875 93.19921875 C40.08069092 93.54815186 39.39966309 93.89708496 38.69799805 94.2565918 C37 95 37 95 35 95 C35.01571045 96.30445068 35.0314209 97.60890137 35.04760742 98.95288086 C35.10263836 103.87501649 35.13661134 108.79712603 35.16479492 113.71948242 C35.17971722 115.83443806 35.20006237 117.94936368 35.22631836 120.06420898 C35.69647775 158.95837538 23.48872292 193.27891845 -3 222 C-3.68707031 222.75796875 -4.37414062 223.5159375 -5.08203125 224.296875 C-28.19987725 248.63144974 -63.79982492 264.16563687 -97.27579021 265.09050274 C-101.09114099 265.12251978 -104.90578738 265.12395669 -108.72119141 265.11352539 C-110.18077594 265.11324278 -111.64036062 265.1134027 -113.09994507 265.1139679 C-117.03312443 265.11425297 -120.96627284 265.10840325 -124.89944506 265.10139394 C-129.02072013 265.095112 -133.14199603 265.09455279 -137.26327515 265.09336853 C-145.05446171 265.09026942 -152.84563412 265.08207529 -160.63681448 265.07201904 C-169.512329 265.06081365 -178.38784423 265.05533633 -187.26336408 265.05032361 C-205.50891739 265.0398914 -223.75445755 265.02231963 -242 265 C-240.34599264 260.60218236 -238.07947904 257.15555501 -235.25 253.4375 C-230.74425541 247.40716443 -226.36566077 241.30152467 -222.0625 235.125 C-221.46775879 234.27196289 -220.87301758 233.41892578 -220.26025391 232.54003906 C-219.07165633 230.83520806 -217.88317805 229.13029388 -216.69482422 227.42529297 C-214.18628526 223.83557444 -211.6558867 220.26147881 -209.125 216.6875 C-204.38134771 209.98275342 -199.68537726 203.24557494 -195 196.5 C-189.84134281 189.07304018 -184.66121261 181.66258304 -179.4375 174.28125 C-175.60695674 168.86672533 -171.80036462 163.43574199 -168 158 C-163.72431749 151.88440077 -159.43558487 145.77854384 -155.125 139.6875 C-150.38156845 132.9825954 -145.68537896 126.24557739 -141 119.5 C-135.83983475 112.07086901 -130.65769026 104.65860829 -125.43310547 97.2746582 C-119.8533761 89.38649682 -114.31911399 81.46660294 -108.78222656 73.54833984 C-105.27644757 68.53555613 -101.76781129 63.52477173 -98.25927734 58.51391602 C-94.68510566 53.40888586 -91.11439032 48.30145824 -87.5456543 43.19262695 C-85.78464694 40.67454207 -84.01972533 38.15924348 -82.25390625 35.64453125 C-80.22581869 32.75615064 -78.21228245 29.85886214 -76.21484375 26.94921875 C-66.66348049 13.12482953 -55.22955904 1.57103886 -38.625 -3.375 C-25.66742309 -5.60906498 -12.14912313 -5.23400169 0 0 Z " fill="#5A4060" transform="translate(537,276)"/>
<path d="M0 0 C5.65856373 0.54191145 10.57062871 1.59892542 15.875 3.625 C16.91599854 4.02150757 16.91599854 4.02150757 17.97802734 4.42602539 C26.5949524 7.85496453 35.00574372 12.92788811 40 21 C40.75 23.6875 40.75 23.6875 40 26 C34.74362538 31.25637462 27.04876528 31.72542874 20 33 C20.76183594 33.3403125 21.52367187 33.680625 22.30859375 34.03125 C39.10398338 41.91522815 39.10398338 41.91522815 42.375 50.6875 C42 54 42 54 40.125 56.75 C32.54614446 62.20677599 24.41636853 62.55027203 15.3125 62.5 C14.16434814 62.49645508 13.01619629 62.49291016 11.83325195 62.48925781 C0.70168702 62.27187212 -8.32097928 60.39850947 -17 53 C-16.30511663 50.6679293 -15.60633708 48.33715447 -14.90234375 46.0078125 C-14.32055319 44.06851063 -13.74941147 42.12596656 -13.19140625 40.1796875 C-10.8039236 32.05163545 -7.85434114 24.20646641 -4.72973633 16.3347168 C-2.98260118 11.87241101 -1.60626403 7.78437278 -1 3 C-0.67 2.01 -0.34 1.02 0 0 Z " fill="#544258" transform="translate(595,142)"/>
<path d="M0 0 C3.41612535 2.56209401 5.36591179 5.09950249 7 9 C8.67342808 21.00587353 4.06090344 30.2258722 -3 39.58984375 C-5 42 -5 42 -7.3125 44.00390625 C-7.869375 44.66261719 -8.42625 45.32132813 -9 46 C-8.64890323 49.90844343 -7.34786229 52.33660663 -5.05859375 55.46875 C-4.47529297 56.28730469 -3.89199219 57.10585937 -3.29101562 57.94921875 C-2.05398732 59.65159912 -0.81439562 61.35211971 0.42773438 63.05078125 C1.00974609 63.86933594 1.59175781 64.68789062 2.19140625 65.53125 C2.72967041 66.26923828 3.26793457 67.00722656 3.82250977 67.76757812 C5.19601843 70.37163436 5.22946618 72.09704532 5 75 C3.02 75.99 3.02 75.99 1 77 C0.32195312 75.87464844 -0.35609375 74.74929688 -1.0546875 73.58984375 C-5.83590134 65.68935387 -10.68002096 57.86152655 -15.85449219 50.21240234 C-20.2201047 43.73257136 -24.42018139 37.14718654 -28.625 30.5625 C-28.99096283 29.98950165 -29.35692566 29.4165033 -29.73397827 28.82614136 C-31.82457649 25.55198597 -33.91313043 22.27653301 -36 19 C-35.01 17.515 -35.01 17.515 -34 16 C-33.22011719 15.85949219 -32.44023437 15.71898437 -31.63671875 15.57421875 C-28.20974861 14.82790081 -27.12794973 13.40597746 -24.8125 10.8125 C-17.98828872 3.73972473 -10.37342376 -2.48741067 0 0 Z " fill="#544358" transform="translate(365,190)"/>
<path d="M0 0 C0 3 0 3 -2.1237793 5.46435547 C-3.09959487 6.43969487 -4.08370002 7.40678361 -5.07421875 8.3671875 C-5.59506546 8.88378937 -6.11591217 9.40039124 -6.65254211 9.93264771 C-8.32396043 11.58726181 -10.00546439 13.23118701 -11.6875 14.875 C-12.80211761 15.97456615 -13.91605815 17.07481909 -15.02929688 18.17578125 C-17.09176789 20.2137797 -19.15819944 22.2475758 -21.22924805 24.27685547 C-23.83411886 26.83696906 -26.41868498 29.41617939 -29 32 C-29.64582031 32.62261719 -30.29164063 33.24523437 -30.95703125 33.88671875 C-36.12322592 38.90064663 -40.60882204 44.30081159 -45 50 C-46.65 49.67 -48.3 49.34 -50 49 C-49.5205537 44.78087253 -48.83374881 42.20336822 -46 39 C-47.11375 39.0825 -48.2275 39.165 -49.375 39.25 C-56.65864299 39.19843439 -62.93503935 36.5435825 -68.125 31.4375 C-71.31880129 27.35187353 -72.08018822 23.76915527 -71.765625 18.62890625 C-70.40361756 13.95221743 -67.05045227 11.4627989 -63 9 C-55.14914578 6.38304859 -46.82162124 7.11453811 -39.4375 10.6875 C-35.31344159 13.01657438 -31.91343361 15.25415679 -29 19 C-29 19.66 -29 20.32 -29 21 C-24.58688746 17.16626257 -20.21038048 13.29654871 -15.875 9.375 C-15.03324219 8.62089844 -14.19148437 7.86679688 -13.32421875 7.08984375 C-11.93992249 5.84514039 -10.56412463 4.59071397 -9.20703125 3.31640625 C-6.11740042 0.51270527 -4.21181944 -0.61938521 0 0 Z " fill="#544258" transform="translate(753,223)"/>
<path d="M0 0 C4.92236975 3.31973774 7.35751518 7.04923246 8.6875 12.8125 C9.49828831 19.42165322 8.39853111 24.27637163 4.6875 29.8125 C-0.64322361 36.1797532 -8.20601428 41.00844316 -16.5078125 42.1015625 C-20.64699168 42.36111499 -22.67289214 42.26733225 -26.125 39.8125 C-30.53780547 33.7606525 -33.0324468 28.92626312 -32.703125 21.26953125 C-32.06836707 17.27690389 -30.4863165 14.18305172 -28.3125 10.8125 C-27.755625 9.94625 -27.19875 9.08 -26.625 8.1875 C-19.25784056 0.62122814 -10.37318084 -3.71868747 0 0 Z " fill="#5F8067" transform="translate(411.3125,170.1875)"/>
<path d="M0 0 C3.9821083 -0.26189245 4.69484508 -0.25321366 7.9375 2.4375 C11.58911958 6.99261308 13.16402917 12.46379231 14.90795898 17.95678711 C16.58211885 23.46852442 16.58211885 23.46852442 20 28 C22.26300895 28.6921369 22.26300895 28.6921369 24.6875 28.75 C25.49574219 28.80671875 26.30398438 28.8634375 27.13671875 28.921875 C27.75160156 28.94765625 28.36648438 28.9734375 29 29 C29.495 31.475 29.495 31.475 30 34 C27.03 34 24.06 34 21 34 C22.12413596 37.06281964 23.24927645 40.12526391 24.375 43.1875 C24.69210937 44.05181641 25.00921875 44.91613281 25.3359375 45.80664062 C26.83904037 49.89320154 28.34815448 53.97049805 30 58 C28.6875 59.5 28.6875 59.5 27 61 C26.01 61 25.02 61 24 61 C20.37 53.08 16.74 45.16 13 37 C8.05 37.495 8.05 37.495 3 38 C1.19595703 38.14695312 1.19595703 38.14695312 -0.64453125 38.296875 C-4.15481128 38.79896191 -6.83870138 39.36544041 -10 41 C-12.01269156 44.24004719 -13.05982364 47.20076438 -14.0703125 50.87109375 C-14.96941493 53.89706452 -15.95021791 55.64332963 -18 58 C-19.32 57.67 -20.64 57.34 -22 57 C-21.38486941 51.48105057 -19.47205145 46.85790679 -17.32421875 41.796875 C-16.95778763 40.91904358 -16.59135651 40.04121216 -16.21382141 39.13677979 C-15.04435839 36.33863865 -13.86620065 33.54426068 -12.6875 30.75 C-11.52147244 27.96923097 -10.35723565 25.18771777 -9.1933136 22.40606689 C-8.47034463 20.68007348 -7.74583328 18.95472495 -7.01945496 17.23016357 C-4.61424731 11.51226252 -2.28669195 5.76629544 0 0 Z " fill="#544258" transform="translate(513,129)"/>
<path d="M0 0 C0.48137655 3.57405606 0.07892375 4.88026458 -1.94140625 7.9453125 C-2.80505497 9.01341274 -3.67935746 10.0729608 -4.5625 11.125 C-5.48116885 12.27079604 -6.3964963 13.4192785 -7.30859375 14.5703125 C-7.76347168 15.14297852 -8.21834961 15.71564453 -8.68701172 16.30566406 C-10.61731679 18.79661185 -12.38968989 21.37031034 -14.125 24 C-14.96417969 25.2684375 -14.96417969 25.2684375 -15.8203125 26.5625 C-17.12920713 29.26697102 -17.24363776 31.03397509 -17 34 C-12.40134627 33.3898903 -8.69538868 31.47754584 -4.65234375 29.33203125 C-3.22880731 28.59644046 -1.80497005 27.86143158 -0.38085938 27.12695312 C1.85004953 25.96800421 4.07807418 24.80427383 6.30102539 23.63012695 C8.45533068 22.49567012 10.61911325 21.38137255 12.78515625 20.26953125 C13.44878677 19.91236526 14.1124173 19.55519928 14.79615784 19.18721008 C19.40549994 16.84455761 19.40549994 16.84455761 22.32592773 17.6081543 C24.51666778 19.42956438 25.83018194 21.16887124 26.40625 23.98828125 C26.90018103 36.23365472 20.09745629 48.16907847 12 57 C5.85026707 62.05156633 1.06493134 64.29870116 -7 64 C-8 63 -8 63 -8.0625 59.9375 C-8.0315625 58.4834375 -8.0315625 58.4834375 -8 57 C-6.1746875 57.3403125 -6.1746875 57.3403125 -4.3125 57.6875 C-1.49032811 58.0142778 -0.15307219 58.05600202 2.5625 57.0625 C10.35005972 50.47302639 16.02035598 42.16911875 18 32 C18.03888349 29.66699067 18.0448635 27.33290199 18 25 C12.27730474 27.70714327 6.70614103 30.53736183 1.2890625 33.8125 C0.46768799 34.30580811 -0.35368652 34.79911621 -1.19995117 35.30737305 C-2.82823847 36.29259154 -4.44862672 37.29101427 -6.05981445 38.30395508 C-11.49544122 41.58152795 -15.64741187 42.71498857 -22 43 C-24.52748477 39.20877285 -24.57193725 36.3800258 -24 32 C-20.95822986 19.9604188 -13.75118504 9.65059671 -5 1 C-3 0 -3 0 0 0 Z " fill="#544258" transform="translate(308,208)"/>
<path d="M0 0 C12.42359316 1.33109927 28.2330254 4.32946534 37 14 C38.1875 17.1875 38.1875 17.1875 38 20 C36.06505204 23.00991905 33.29752569 23.8666213 30 25 C18.22795831 26.53407951 7.21332613 23.18926674 -4 20 C-3.44476017 15.04057631 -2.70207091 10.33835826 -1.4375 5.5 C-1.16808594 4.4584375 -0.89867187 3.416875 -0.62109375 2.34375 C-0.41613281 1.5703125 -0.21117187 0.796875 0 0 Z " fill="#5F8067" transform="translate(591,174)"/>
<path d="M0 0 C4.92236975 3.31973774 7.35751518 7.04923246 8.6875 12.8125 C9.49828831 19.42165322 8.39853111 24.27637163 4.6875 29.8125 C-0.64322361 36.1797532 -8.20601428 41.00844316 -16.5078125 42.1015625 C-20.64699168 42.36111499 -22.67289214 42.26733225 -26.125 39.8125 C-30.53780547 33.7606525 -33.0324468 28.92626312 -32.703125 21.26953125 C-32.06836707 17.27690389 -30.4863165 14.18305172 -28.3125 10.8125 C-27.755625 9.94625 -27.19875 9.08 -26.625 8.1875 C-19.25784056 0.62122814 -10.37318084 -3.71868747 0 0 Z M-24.3125 14.8125 C-25.77480215 17.73710429 -25.52158727 20.36902824 -25.5625 23.625 C-25.58828125 24.84832031 -25.6140625 26.07164062 -25.640625 27.33203125 C-25.28120804 31.14441832 -24.89108455 32.9771052 -22.3125 35.8125 C-18.21104696 37.07034419 -15.99932387 37.06305463 -11.9609375 35.58984375 C-2.54428701 30.33981617 -2.54428701 30.33981617 3.6875 21.8125 C4.29046257 15.78287433 2.91034552 11.78105351 -0.3125 6.8125 C-2.83314802 3.9317594 -4.21158683 3.82763698 -8.0625 3.25 C-15.17971361 3.51556767 -20.46773243 9.27603469 -24.3125 14.8125 Z " fill="#544358" transform="translate(411.3125,170.1875)"/>
<path d="M0 0 C2.5 1.375 2.5 1.375 4 4 C5.23245956 10.43226514 3.88320519 15.73196069 0.77734375 21.39453125 C-2.62865405 26.38749945 -6.7814252 30.69131972 -11 35 C-16.30773525 30.23120402 -20.44975158 23.1014002 -21.6875 16.125 C-20.17000842 9.22731101 -15.42725692 5.10386176 -10 1 C-6.7863589 -0.60682055 -3.48539659 -0.46150508 0 0 Z " fill="#5F8067" transform="translate(362,197)"/>
<path d="M0 0 C3.875 0.875 3.875 0.875 5 2 C5.28743526 6.21571713 4.79760213 9.18009548 3 13 C3.55945313 12.94199219 4.11890625 12.88398438 4.6953125 12.82421875 C16.33290269 12.16937043 26.91406345 17.00527107 36 24 C35.125 28.75 35.125 28.75 34 31 C31.75 30.8125 31.75 30.8125 29 30 C27.62517293 28.36739286 26.29352333 26.69774938 25 25 C18.85357373 20.3901803 11.45973182 19.39840872 4 20 C-3.15539871 22.61447261 -6.04376127 27.68141535 -9.25 34.3125 C-9.77078125 35.38113281 -10.2915625 36.44976562 -10.828125 37.55078125 C-11.40820312 38.76314453 -11.40820312 38.76314453 -12 40 C-13.98 39.34 -15.96 38.68 -18 38 C-17.44413942 33.31470121 -16.13799931 29.84869315 -13.9453125 25.68359375 C-13.64309784 25.10464859 -13.34088318 24.52570343 -13.0295105 23.92921448 C-12.06910266 22.09444172 -11.09712353 20.26608706 -10.125 18.4375 C-9.47973494 17.20676466 -8.83519696 15.97564783 -8.19140625 14.74414062 C-5.57391263 9.75703835 -2.93968265 4.80710856 0 0 Z " fill="#544258" transform="translate(662,188)"/>
<path d="M0 0 C1.32 0 2.64 0 4 0 C7.29230693 7.22389676 8.97343476 14.13867147 10 22 C10.67546875 21.7834375 11.3509375 21.566875 12.046875 21.34375 C12.93890625 21.0653125 13.8309375 20.786875 14.75 20.5 C15.63171875 20.2215625 16.5134375 19.943125 17.421875 19.65625 C20 19 20 19 24 19 C24 20.98 24 22.96 24 25 C19.73383684 26.13764351 16.43513689 27 12 27 C12.176521 27.55349121 12.35304199 28.10698242 12.53491211 28.67724609 C13.34589925 31.2400828 14.14172629 33.8074006 14.9375 36.375 C15.35418945 37.68017578 15.35418945 37.68017578 15.77929688 39.01171875 C17.62296026 45.00917796 18.61653385 50.73812416 19 57 C17.35 57 15.7 57 14 57 C9.36966482 49.22765166 7.86942433 40.75049686 6 32 C-0.435 32.495 -0.435 32.495 -7 33 C-7.66 31.35 -8.32 29.7 -9 28 C-7.56445975 27.49440092 -6.1264798 26.9957251 -4.6875 26.5 C-3.88699219 26.2215625 -3.08648437 25.943125 -2.26171875 25.65625 C0 25 0 25 3 25 C2.71125 23.85402344 2.4225 22.70804688 2.125 21.52734375 C1.74957805 19.99749932 1.37460171 18.46754549 1 16.9375 C0.80921875 16.18533203 0.6184375 15.43316406 0.421875 14.65820312 C-0.7122242 9.98004393 -1.30062574 5.8162749 -1 1 C-0.67 0.67 -0.34 0.34 0 0 Z " fill="#544258" transform="translate(427,140)"/>
<path d="M0 0 C3.94386565 1.49131837 6.46431413 3.48664267 9.125 6.8125 C9.62 8.2975 9.62 8.2975 10.125 9.8125 C8.7265625 11.8203125 8.7265625 11.8203125 6.75 13.9375 C6.10289062 14.64132813 5.45578125 15.34515625 4.7890625 16.0703125 C2.17527986 18.80680794 2.17527986 18.80680794 -1.1875 19.1875 C-8.18277742 19.09911202 -15.9302461 15.93829603 -21.1875 11.3125 C-22.875 8.8125 -22.875 8.8125 -23.0625 6.3125 C-18.46432681 -3.36786461 -9.09226319 -2.62597918 0 0 Z " fill="#5F8067" transform="translate(709.875,238.1875)"/>
<path d="M0 0 C10.51937933 0.60688727 19.48842831 4.65914585 27 12 C26.67 13.65 26.34 15.3 26 17 C16.02547244 20.75161335 5.2173163 19.31367328 -5 17 C-5.66 16.67 -6.32 16.34 -7 16 C-5.35433477 10.31497465 -2.70967216 5.23318364 0 0 Z " fill="#5F8067" transform="translate(601,150)"/>
<path d="M0 0 C1.65 0.66 3.3 1.32 5 2 C4.03704531 8.37470002 0.96950058 13.95333077 -1.78222656 19.71240234 C-2.7498981 21.74978546 -3.69124602 23.7981046 -4.6328125 25.84765625 C-5.24840977 27.14398553 -5.86554523 28.43958571 -6.484375 29.734375 C-7.03834961 30.91225586 -7.59232422 32.09013672 -8.16308594 33.30371094 C-10 36 -10 36 -12.59472656 36.95410156 C-15 37 -15 37 -17 36 C-16.4632474 31.01920254 -14.79049998 27.1819026 -12.40234375 22.8515625 C-12.04862198 22.19417084 -11.69490021 21.53677917 -11.33045959 20.85946655 C-10.2074945 18.77685308 -9.07274291 16.70094154 -7.9375 14.625 C-7.17043412 13.20745837 -6.4041497 11.78949357 -5.63867188 10.37109375 C-3.76812099 6.90910078 -1.88697783 3.45306479 0 0 Z " fill="#544258" transform="translate(650,183)"/>
<path d="M0 0 C4.45850936 0.79616239 5.90783917 1.93313458 8.5 5.625 C9.125 9.125 9.125 9.125 8.5 12.625 C5.91370196 16.30851539 4.43024874 17.44227257 0 18.3125 C-3.5 17.625 -3.5 17.625 -6.4375 15 C-8.68818265 11.31706475 -9.39426216 9.82803214 -8.5 5.625 C-5.89210172 1.98974785 -4.4297642 0.79102932 0 0 Z " fill="#5F7F67" transform="translate(520.5,316.375)"/>
<path d="M0 0 C2.62030185 0.99977974 3.79266903 1.64589186 5.23046875 4.1015625 C7.26530226 9.4668786 8.57556301 14.27010059 9 20 C-2.33712984 24.59225513 -2.33712984 24.59225513 -9 24 C-7.66394234 18.12134629 -5.16271417 13.18163792 -2.33984375 7.8671875 C-1.08874565 5.18991052 -0.4315251 2.90879882 0 0 Z " fill="#5F7E67" transform="translate(515,139)"/>
<path d="M0 0 C1.65 0.33 3.3 0.66 5 1 C5.33 2.32 5.66 3.64 6 5 C4.1875 5.6875 4.1875 5.6875 2 6 C0.25 4.5625 0.25 4.5625 -1 3 C-0.67 2.01 -0.34 1.02 0 0 Z " fill="#544258" transform="translate(655,170)"/>
</svg>
