<svg xmlns="http://www.w3.org/2000/svg" version="1.1" xmlns:xlink="http://www.w3.org/1999/xlink" xmlns:svgjs="http://svgjs.dev/svgjs" viewBox="0 0 800 800"><defs><filter id="ssspot-filter" x="-20%" y="-20%" width="140%" height="140%" filterUnits="objectBoundingBox" primitiveUnits="userSpaceOnUse" color-interpolation-filters="sRGB">
	<feTurbulence type="turbulence" baseFrequency="0.022 0.218" numOctaves="2" seed="86" stitchTiles="stitch" x="0%" y="0%" width="100%" height="100%" result="turbulence"></feTurbulence>
	<feGaussianBlur stdDeviation="0 3" x="0%" y="0%" width="100%" height="100%" in="turbulence" edgeMode="duplicate" result="blur"></feGaussianBlur>
	<feDisplacementMap in="SourceGraphic" in2="blur" scale="32" xChannelSelector="R" yChannelSelector="B" x="0%" y="0%" width="100%" height="100%" result="displacementMap"></feDisplacementMap>
</filter></defs><rect width="100%" height="100%" fill="#fdfced"></rect><g fill="hsl(134, 15%, 44%)" filter="url(#ssspot-filter)"><circle r="4.257210184566974" cx="676.3353511787693" cy="288.38744708087256" opacity="0.5027478304665887"></circle><circle r="8.823595603165543" cx="189.95457570967642" cy="101.29327880309519" opacity="0.21064820906668902"></circle><circle r="2.886434668479617" cx="20.037055037458934" cy="464.18396861477777" opacity="0.9813480536478998"></circle><circle r="6.04302452263923" cx="93.21988140425934" cy="48.67929689519823" opacity="0.25873557960277593"></circle><circle r="8.104954256465708" cx="363.87269344082273" cy="32.78518629347547" opacity="0.5114881772645321"></circle><circle r="2.91329048997295" cx="700.8386173439146" cy="545.3361563806063" opacity="0.2967403284218932"></circle><circle r="3.813945581874308" cx="587.5978808935525" cy="44.555453103109464" opacity="0.9047334595368998"></circle><circle r="5.140363380283265" cx="563.8428794097808" cy="349.43072055056206" opacity="0.8312694485862259"></circle><circle r="4.7197102438118534" cx="376.2260232724762" cy="253.496480301068" opacity="0.9958793112486384"></circle><circle r="4.3053025738759505" cx="313.1512567553232" cy="518.7389480069951" opacity="0.5175047922117566"></circle><circle r="6.253100785575369" cx="57.746902858744164" cy="481.9560743115243" opacity="0.1847857421234108"></circle><circle r="6.961249823770955" cx="437.52879250389634" cy="495.9997766815614" opacity="0.24066266158508862"></circle><circle r="5.395658920662708" cx="119.159343860837" cy="446.97810356350334" opacity="0.25252412332685126"></circle><circle r="4.87822049925362" cx="536.2695590496384" cy="266.2049415501149" opacity="0.30065436089687386"></circle><circle r="4.009799230053064" cx="569.6713148418006" cy="256.84515407447196" opacity="0.8722075556843195"></circle><circle r="6.711872489901713" cx="581.3753909714209" cy="134.84687208004092" opacity="0.6090886386426251"></circle><circle r="5.385227138985927" cx="482.42756292564616" cy="319.93624370788854" opacity="0.8576004423122479"></circle><circle r="3.8009431249400265" cx="239.4853655617697" cy="607.5765885160279" opacity="0.8001212858994191"></circle><circle r="8.52243076152062" cx="779.217813275731" cy="302.95950181478895" opacity="0.20283776089698957"></circle><circle r="4.426536988726996" cx="15.78963924933896" cy="514.8632780298187" opacity="0.49822184770009836"></circle><circle r="5.049204720491241" cx="701.2260137436499" cy="149.17755195099323" opacity="0.3114467748715806"></circle><circle r="5.117688403080165" cx="618.4292306245459" cy="288.6573267231945" opacity="0.5948959224303404"></circle><circle r="7.8958718991491885" cx="411.49325937875574" cy="405.15834189331093" opacity="0.4655986686207949"></circle><circle r="4.1061501863802725" cx="645.5908924021729" cy="102.57115332721118" opacity="0.3368553703808442"></circle><circle r="4.82804482708539" cx="736.4395003118954" cy="370.53153392359053" opacity="0.585463739389788"></circle><circle r="3.5559950335589807" cx="263.3071482997034" cy="562.4729812499094" opacity="0.4722657545752612"></circle><circle r="4.164816387948728" cx="12.489954471492451" cy="384.1778896897064" opacity="0.8090600276249751"></circle><circle r="9.70145286186986" cx="200.5401623772851" cy="498.63465250564394" opacity="0.9148303627222032"></circle><circle r="4.929324393878561" cx="661.9632056617016" cy="715.831582992175" opacity="0.41362507707541885"></circle><circle r="5.017987623903794" cx="675.3912596624833" cy="475.58817882776344" opacity="0.8675645817438822"></circle><circle r="7.11618946857876" cx="561.6413390801276" cy="600.2633329536236" opacity="0.2904461235073911"></circle><circle r="3.37816797916273" cx="779.3902101128547" cy="753.5976376463977" opacity="0.873037827597784"></circle><circle r="8.457252177001003" cx="135.50836107981377" cy="418.71430018532635" opacity="0.15434105903447026"></circle><circle r="5.14816504132016" cx="275.7497531656259" cy="422.93925321036545" opacity="0.12802558449458087"></circle><circle r="4.5192265659014845" cx="239.6507620320393" cy="456.5525637073278" opacity="0.19845856839957798"></circle><circle r="7.803627968042593" cx="72.28359545267608" cy="370.5839736436901" opacity="0.5868052275373171"></circle><circle r="3.822894643130841" cx="319.93458343310056" cy="220.6441126880628" opacity="0.3318822777863812"></circle><circle r="3.5884369351954915" cx="494.9125789227875" cy="257.2180305709239" opacity="0.3182256607135362"></circle><circle r="6.913815993084546" cx="446.4579684370162" cy="85.66091212716212" opacity="0.4802376028186969"></circle><circle r="6.592671299472172" cx="147.7720234293651" cy="293.0165854537067" opacity="0.5164314888584329"></circle><circle r="6.05442272717214" cx="300.4999874511945" cy="167.1708340785664" opacity="0.12677293199077408"></circle><circle r="3.6399135780825054" cx="243.46023734939033" cy="14.7787297854836" opacity="0.24294561161534123"></circle><circle r="2.8806189759801493" cx="107.4774458085" cy="121.03398935321968" opacity="0.5114549560834581"></circle><circle r="5.759815809945383" cx="496.05565086318626" cy="531.0308376231144" opacity="0.49946299928769555"></circle><circle r="3.230014036390407" cx="483.6816811943396" cy="789.5260931430499" opacity="0.6564564282568942"></circle><circle r="5.186107166047571" cx="14.718009489753639" cy="703.6233948019761" opacity="0.27141697648718544"></circle><circle r="4.468455862999098" cx="552.0441059789783" cy="448.2740461772173" opacity="0.8159175657567663"></circle><circle r="5.448049051597524" cx="607.4225587019546" cy="262.95100672073875" opacity="0.18546667167347958"></circle><circle r="6.541763560403867" cx="286.5337644225092" cy="75.71678426606569" opacity="0.664730531949492"></circle><circle r="4.901218065146001" cx="765.610056237999" cy="384.1942040704104" opacity="0.5694835402609305"></circle><circle r="4.821169555854352" cx="480.1445059379873" cy="353.38449333728687" opacity="0.8599541890621978"></circle><circle r="5.656415721955323" cx="684.7064382553073" cy="678.8393364510825" opacity="0.3778412200027246"></circle><circle r="3.994721215961945" cx="70.91344299455379" cy="407.0284651761822" opacity="0.6299636801579062"></circle><circle r="5.8464947239591165" cx="359.19343710916934" cy="606.2309753576834" opacity="0.5266769442292331"></circle><circle r="4.329057283883907" cx="483.47275080271726" cy="293.4643772295608" opacity="0.6164229542156296"></circle><circle r="5.222021672697652" cx="385.7763086790286" cy="595.8902818946277" opacity="0.4618126834249666"></circle><circle r="6.400300402366707" cx="419.8418447860375" cy="707.8202771157603" opacity="0.4917111275899274"></circle><circle r="6.534656553905025" cx="595.7535272172313" cy="238.34972641174068" opacity="0.35307122140185254"></circle><circle r="5.446591137553708" cx="183.40974017925973" cy="712.0005157386944" opacity="0.18691840961705902"></circle><circle r="3.259233107790493" cx="597.4575422489041" cy="22.883966053519302" opacity="0.6436023265352672"></circle><circle r="6.270184168312783" cx="711.8041944165556" cy="442.4066193676631" opacity="0.6472693219697195"></circle><circle r="4.9323984558549805" cx="346.149158825332" cy="92.75520312875844" opacity="0.26909811643760545"></circle><circle r="3.4291588812990046" cx="10.473899494332183" cy="730.997711242974" opacity="0.3489878615263944"></circle><circle r="6.314778521580736" cx="298.60903912644426" cy="329.0779609354519" opacity="0.13093727763061125"></circle><circle r="4.2322919935709455" cx="536.1391866490457" cy="470.5333093844414" opacity="0.130411334496105"></circle><circle r="3.6722418376381896" cx="354.111422778387" cy="497.7410468331151" opacity="0.5138845559994779"></circle><circle r="4.964546706752724" cx="343.4259622080523" cy="270.6828719333855" opacity="0.997965104394887"></circle><circle r="7.3374107202772505" cx="467.0114960436983" cy="557.1873097470148" opacity="0.9896265291449681"></circle><circle r="4.639177590701421" cx="144.4360225483494" cy="465.53622086824004" opacity="0.3899595341141664"></circle><circle r="5.569270799842853" cx="152.55848578786456" cy="196.73973079646808" opacity="0.5484972557003193"></circle><circle r="2.917015520913954" cx="342.0019329679395" cy="205.37689620826959" opacity="0.9801780676201906"></circle><circle r="3.7528327576854226" cx="639.5887079117593" cy="10.175402696357486" opacity="0.5072506967729867"></circle><circle r="4.459910563343965" cx="672.2298224546128" cy="329.5041862040133" opacity="0.3025806924137937"></circle><circle r="6.178287219021158" cx="185.918663379632" cy="182.57373332321336" opacity="0.837559030372982"></circle><circle r="4.770541253861465" cx="765.641367191975" cy="212.80892486723533" opacity="0.6986931444996458"></circle><circle r="6.059345021492499" cx="83.99379507014574" cy="223.61937821387195" opacity="0.9264891457437755"></circle><circle r="5.69167148683017" cx="247.3495137844551" cy="402.6830062248022" opacity="0.9605554249252485"></circle><circle r="6.694593638509603" cx="290.61837213252915" cy="783.9662697934967" opacity="0.8176905567247887"></circle><circle r="5.66451271588713" cx="505.4136950555493" cy="377.164743002873" opacity="0.3288976810833032"></circle><circle r="5.206820759375983" cx="278.28788298007714" cy="255.35166182059498" opacity="0.30858220395650815"></circle><circle r="4.511585255840077" cx="191.7474612413223" cy="612.4802696441034" opacity="0.3432861761534556"></circle><circle r="3.7063794827615286" cx="42.707756844223574" cy="89.64248578086324" opacity="0.5496204424955741"></circle><circle r="5.9773900072649795" cx="40.17132652324101" cy="66.12189740903035" opacity="0.5486654318414922"></circle><circle r="5.939648668289782" cx="547.1722726883016" cy="34.137341736512624" opacity="0.5227414928912606"></circle><circle r="3.654901284286895" cx="525.3777031394515" cy="399.9388557325843" opacity="0.8727494266811834"></circle><circle r="5.034879221445757" cx="347.9962041401438" cy="458.2169413938933" opacity="0.4553465365819128"></circle><circle r="7.3952796397478355" cx="273.9932473996222" cy="388.87080514083465" opacity="0.5204121736224958"></circle><circle r="3.590413281391477" cx="416.12848044385004" cy="515.412540863618" opacity="0.37749927881980494"></circle><circle r="8.934414967302713" cx="15.562114095648207" cy="109.46420570594717" opacity="0.3125310105543884"></circle><circle r="5.335347543782879" cx="475.87487616773745" cy="106.83679659149051" opacity="0.7057687275710387"></circle><circle r="8.515636488084233" cx="371.7621778655943" cy="418.64326097476203" opacity="0.8813970946875536"></circle><circle r="8.743134554189245" cx="24.24920013843634" cy="559.8371195613544" opacity="0.5880159895903655"></circle><circle r="6.159842646425382" cx="481.2924156954031" cy="179.51334493561757" opacity="0.4787607718603666"></circle><circle r="4.190413288558413" cx="473.98910237585045" cy="404.92614832693613" opacity="0.4881523279084228"></circle><circle r="7.330550384852964" cx="739.1364261089464" cy="201.29272974542945" opacity="0.14547125061175512"></circle><circle r="3.3452369980944603" cx="790.5895329283153" cy="258.53863627162934" opacity="0.702388084493678"></circle><circle r="7.60188530107982" cx="254.35179306239803" cy="718.5129138066569" opacity="0.27976446461313187"></circle><circle r="6.685803150123911" cx="141.88065171170817" cy="657.0387815615994" opacity="0.6513623216254206"></circle><circle r="4.4743746590453375" cx="673.1762710205238" cy="400.06067635036493" opacity="0.9565875581402177"></circle><circle r="5.345787371710225" cx="750.6783686870905" cy="732.985993884671" opacity="0.3307390541246461"></circle><circle r="3.7481269618609536" cx="418.5162714705593" cy="648.822823080519" opacity="0.46078377281359495"></circle><circle r="2.541039263812" cx="606.8582224969624" cy="414.0967627876749" opacity="0.7097327509285222"></circle><circle r="8.526020717355378" cx="574.5581625662174" cy="556.9252065260439" opacity="0.15277804339513618"></circle><circle r="4.57422278358365" cx="650.9743035709341" cy="125.38917389923195" opacity="0.4803183060611018"></circle><circle r="3.507908836531886" cx="99.21164978505634" cy="738.1854719133123" opacity="0.2647005289846053"></circle><circle r="4.57287414969166" cx="34.2834300419126" cy="483.98141052148713" opacity="0.5173218092327737"></circle><circle r="3.636864449501153" cx="222.38409125484475" cy="624.6863359321184" opacity="0.10880336945001132"></circle><circle r="4.187273896398482" cx="160.81019320683657" cy="111.18253057730031" opacity="0.8485871117106655"></circle><circle r="2.968259803514212" cx="111.71532439316135" cy="153.4981674400006" opacity="0.7668264575490432"></circle><circle r="6.936100874054082" cx="401.702214440916" cy="269.8630672919289" opacity="0.11912481561049634"></circle><circle r="6.733905110552348" cx="439.8329812451909" cy="285.48411673570894" opacity="0.14525686282681485"></circle><circle r="4.9542003935014165" cx="61.88065253351525" cy="241.70031933913575" opacity="0.10198239225013257"></circle><circle r="2.0978330434735835" cx="153.65276231718505" cy="6.586632691921591" opacity="0.3244998116137108"></circle><circle r="3.5565451012608795" cx="615.8627787698923" cy="392.7559109635315" opacity="0.11986414907681088"></circle><circle r="5.36484299207037" cx="259.48640937503677" cy="187.0648820469903" opacity="0.6279005572431133"></circle><circle r="4.74017631251122" cx="14.948225402435005" cy="162.64315568215017" opacity="0.47711040704460905"></circle><circle r="4.684414295035488" cx="66.10077429008756" cy="774.9963472460319" opacity="0.1782898345026588"></circle><circle r="3.2253050324695907" cx="686.2367625385584" cy="746.4208279270553" opacity="0.24984511203408108"></circle><circle r="5.1767858166373895" cx="733.800601012221" cy="516.7431532833562" opacity="0.8728635853754781"></circle><circle r="3.2709861730069116" cx="436.8873820230105" cy="659.8552806177553" opacity="0.7351344759133419"></circle><circle r="4.647152554573674" cx="699.1182272650258" cy="594.1333702721557" opacity="0.4413941077788778"></circle><circle r="4.235395518416276" cx="38.23428778753267" cy="641.6881224058814" opacity="0.20240274457639357"></circle><circle r="6.34322108221262" cx="291.3936319677671" cy="32.4853650598903" opacity="0.6671945766279734"></circle><circle r="8.04982237496544" cx="437.34210718616043" cy="783.351687193235" opacity="0.2591331829020881"></circle><circle r="7.033218118848106" cx="491.68908672038975" cy="435.83218057052983" opacity="0.3671442424262882"></circle><circle r="5.6622444439456" cx="172.56347448926616" cy="152.06854706230607" opacity="0.8242635464303779"></circle><circle r="2.358697422808692" cx="52.28861217631594" cy="790.1461539767284" opacity="0.8688028427783332"></circle><circle r="4.591584445368109" cx="340.03128009681865" cy="389.22012245659954" opacity="0.34421105451594625"></circle><circle r="4.01010439542537" cx="277.39263211246157" cy="621.392911964299" opacity="0.4929320535027425"></circle><circle r="4.9467598172063925" cx="36.591504531514374" cy="216.0141081427157" opacity="0.34942652962995"></circle><circle r="5.9193764060761325" cx="646.4421880438706" cy="251.37081328988768" opacity="0.2547890729482129"></circle><circle r="4.141443441228711" cx="647.4723015735873" cy="150.78000463287017" opacity="0.95573889166992"></circle><circle r="6.773318485873802" cx="77.17511454224697" cy="711.1166195827192" opacity="0.6294773804777719"></circle><circle r="6.167315227428319" cx="82.84482883549275" cy="567.9998832406443" opacity="0.9972992277596224"></circle><circle r="3.700949500249486" cx="352.76741849130167" cy="783.2231585980061" opacity="0.29917101379914357"></circle><circle r="3.034814195409341" cx="225.02278350291158" cy="646.9287138936814" opacity="0.7818416297134413"></circle><circle r="6.4807861859555835" cx="125.24690390059932" cy="760.811611496656" opacity="0.3663588350396205"></circle><circle r="4.149037656082636" cx="572.0075776776548" cy="186.13353918415268" opacity="0.1342533025293576"></circle><circle r="5.198987146515105" cx="205.29806858707215" cy="579.3089820675586" opacity="0.8650510177057126"></circle><circle r="9.595071464968456" cx="511.03180999196394" cy="591.907867062365" opacity="0.8268923747910703"></circle><circle r="5.919928671785346" cx="296.2966748149133" cy="645.9513681003897" opacity="0.5799936515708781"></circle><circle r="7.946270682996029" cx="172.47946026880317" cy="750.4835584144932" opacity="0.6969157317242413"></circle><circle r="5.108854019325181" cx="643.3670099393435" cy="280.69322481222264" opacity="0.801413574357949"></circle><circle r="5.709723160783428" cx="460.8023574554933" cy="49.75765880448797" opacity="0.7017493669723268"></circle><circle r="4.776745052984466" cx="403.4700897453955" cy="559.4836230085572" opacity="0.23315187273946464"></circle><circle r="6.23742587600885" cx="534.2086080968153" cy="507.4311266114776" opacity="0.991659895657644"></circle><circle r="4.949501153649001" cx="60.60843750683145" cy="12.164753323687384" opacity="0.5294882968541121"></circle><circle r="5.334893722343553" cx="519.0512629508346" cy="175.3807333995894" opacity="0.3831503930759216"></circle><circle r="4.116894732792444" cx="353.3745984963115" cy="734.9622223275306" opacity="0.5346293907488358"></circle><circle r="4.705889206601182" cx="531.5006646954039" cy="128.35960701926064" opacity="0.4634756518622323"></circle><circle r="6.167138905182359" cx="498.588058427769" cy="654.8902802258297" opacity="0.25829841598331527"></circle><circle r="6.958311341250995" cx="505.05118788135565" cy="207.43151441853448" opacity="0.35853757659585406"></circle><circle r="1.8383264938569641" cx="664.4808483278989" cy="135.95274763591536" opacity="0.7257109286762764"></circle><circle r="8.252748244798743" cx="570.7237126013666" cy="650.3566267227063" opacity="0.7195044805561861"></circle><circle r="8.283193403486614" cx="306.39164672507667" cy="292.84167184632827" opacity="0.304311527290955"></circle><circle r="8.339876111843122" cx="440.62704226252185" cy="424.3785619241964" opacity="0.4158741798863159"></circle><circle r="7.176578484516899" cx="445.95904904507466" cy="224.36588569293926" opacity="0.8054000437040904"></circle><circle r="6.772028078162307" cx="664.5905546088408" cy="511.23771155924675" opacity="0.6017232990749268"></circle><circle r="6.748926534521031" cx="320.2891249171822" cy="432.18914851022726" opacity="0.322787611649815"></circle><circle r="4.004428346347016" cx="336.24217434860515" cy="623.661893907842" opacity="0.1628883349811096"></circle><circle r="4.863760402640482" cx="11.486086479458404" cy="640.9543953398936" opacity="0.5671657770263048"></circle><circle r="6.203481821935159" cx="697.3596778888511" cy="377.4023794018487" opacity="0.7778837742683019"></circle><circle r="6.690343647113583" cx="326.0141314654514" cy="144.95836919454305" opacity="0.8333279836808709"></circle><circle r="6.697336664538538" cx="220.27565827309215" cy="781.1292868703175" opacity="0.46976666862580396"></circle><circle r="7.812057442626132" cx="615.5508520527547" cy="570.0024202755795" opacity="0.3671358043805839"></circle><circle r="9.062690556468342" cx="373.6746659026449" cy="373.95471596251514" opacity="0.502876178993648"></circle><circle r="4.956817600502224" cx="691.3852407555171" cy="17.91814876955095" opacity="0.2510795672859436"></circle><circle r="6.144824738043021" cx="171.68582891158968" cy="459.3702686046691" opacity="0.8200443246480975"></circle><circle r="5.045671375385601" cx="124.78869147506957" cy="58.07640171961325" opacity="0.10262012605190683"></circle><circle r="6.496597343117356" cx="408.31436513100596" cy="625.2436194347046" opacity="0.5927779441359509"></circle><circle r="5.743403958865755" cx="672.2453552652356" cy="634.3341576795278" opacity="0.3509979109905036"></circle><circle r="10.237793948701865" cx="741.3075834515397" cy="592.1419981429332" opacity="0.2520831280507533"></circle><circle r="6.773118371507911" cx="783.6826815889101" cy="25.836505631474868" opacity="0.6751111689949858"></circle><circle r="4.094508378772835" cx="420.50507169704775" cy="540.9588033391178" opacity="0.13639054608786183"></circle><circle r="4.683661026162795" cx="525.8065863861735" cy="295.5097245245034" opacity="0.7703490060146769"></circle><circle r="5.096303518982481" cx="782.2061386553169" cy="347.7554488750282" opacity="0.14622925524617736"></circle><circle r="4.607751640441816" cx="368.28028081189456" cy="788.6951478590909" opacity="0.28456190755476574"></circle><circle r="5.0746674090888515" cx="619.952916880114" cy="127.74312714129107" opacity="0.494727910896528"></circle><circle r="4.146233118247043" cx="644.1945887787269" cy="695.6535151972272" opacity="0.9297133828070715"></circle><circle r="5.784939643299858" cx="148.50105840481015" cy="83.93627689461589" opacity="0.16748537805727798"></circle><circle r="5.034143106021906" cx="70.37321924797587" cy="37.279081918256246" opacity="0.13675931856553739"></circle><circle r="4.908507106464036" cx="739.3586943853696" cy="93.87450743222524" opacity="0.5195016020877405"></circle><circle r="5.052139170167865" cx="277.5177917743139" cy="523.2770563432733" opacity="0.4749355725603619"></circle><circle r="8.503317581791947" cx="287.83659487194024" cy="692.0579178311701" opacity="0.6294674890497325"></circle><circle r="5.801013276020741" cx="250.0343443076273" cy="536.338559391041" opacity="0.7941614326080458"></circle><circle r="6.101786206726235" cx="438.63875948262677" cy="574.4574628640081" opacity="0.3407303943483143"></circle><circle r="5.469505715258522" cx="80.5542566223929" cy="637.9283851470842" opacity="0.16061477005130198"></circle><circle r="7.117878756148018" cx="216.65702783328746" cy="401.29311362127635" opacity="0.23269426046405836"></circle><circle r="5.850273213054862" cx="720.9979661812853" cy="341.74899035339143" opacity="0.507687030079142"></circle><circle r="6.0498955245749775" cx="16.007866302238643" cy="199.0128557545886" opacity="0.5938068726434679"></circle><circle r="4.106081453129446" cx="655.2444401587405" cy="368.62156192900443" opacity="0.9502847272099947"></circle><circle r="4.867096703593791" cx="722.4810663719952" cy="13.322387198534486" opacity="0.19595922587801484"></circle><circle r="6.401599710459021" cx="489.1165961992374" cy="142.14135675607483" opacity="0.20211243181842037"></circle><circle r="5.728098920671757" cx="61.26473582415013" cy="686.7580042769687" opacity="0.9882621875480379"></circle><circle r="4.685223325852363" cx="547.12644670324" cy="421.47114140468744" opacity="0.4925708340043403"></circle><circle r="5.169775154850103" cx="339.0658972335332" cy="708.2133239966967" opacity="0.26897342864116514"></circle><circle r="4.215123781267172" cx="708.002291753814" cy="736.6766136370525" opacity="0.6728998319827043"></circle><circle r="3.832301144323897" cx="393.2179521988153" cy="506.4966652682409" opacity="0.5171614141472336"></circle><circle r="9.568784161456282" cx="577.9282037228379" cy="776.8596458310816" opacity="0.7157273683515911"></circle><circle r="3.259050325556945" cx="510.9149009173832" cy="417.1893079672369" opacity="0.6697111397804583"></circle><circle r="3.9505442528723433" cx="631.8908175047594" cy="490.59322197179455" opacity="0.8816267729129078"></circle><circle r="6.1426497127653406" cx="708.4354760287504" cy="306.9804491926162" opacity="0.6496989534370166"></circle><circle r="8.76551972868123" cx="227.43811687814886" cy="80.5965247964543" opacity="0.25406886052246225"></circle><circle r="7.762213138286388" cx="76.31880627116273" cy="291.79558814811156" opacity="0.9417656337696901"></circle><circle r="6.508192897858674" cx="144.149640163184" cy="157.4162441001036" opacity="0.1657814226686942"></circle><circle r="6.850738311122945" cx="630.9176662106357" cy="222.81045469383963" opacity="0.3373966017057838"></circle><circle r="6.62280448658707" cx="384.99635047182113" cy="305.57256513016426" opacity="0.983425869506306"></circle><circle r="4.617773475159737" cx="720.688588954006" cy="43.167540555188175" opacity="0.8769332849183201"></circle><circle r="4.160937834992987" cx="615.416292461623" cy="56.02590730439825" opacity="0.969672904786351"></circle><circle r="4.831861865902864" cx="573.7225733103487" cy="208.9074908313145" opacity="0.1434077298854408"></circle><circle r="6.714346346229798" cx="785.803475577069" cy="111.80515739036291" opacity="0.8440205858854515"></circle><circle r="5.04060153256513" cx="126.84695157084664" cy="10.553211267885253" opacity="0.6957870116827393"></circle><circle r="4.845224436495963" cx="96.7305025512954" cy="786.3164236418461" opacity="0.9393182375662026"></circle><circle r="5.044176866641252" cx="300.7543789877655" cy="464.26643354450874" opacity="0.7360115609025485"></circle><circle r="4.138669391464313" cx="698.125192511422" cy="521.4725709250454" opacity="0.6282418010647515"></circle><circle r="5.6632569360629565" cx="784.2609735166623" cy="69.28181843033485" opacity="0.7935723423460792"></circle><circle r="8.072752138627134" cx="781.737313597056" cy="597.217782106767" opacity="0.5197291270814666"></circle><circle r="7.17797765001388" cx="490.24226979577924" cy="735.4531571189685" opacity="0.873582424561754"></circle><circle r="4.554358965306635" cx="54.122366840084666" cy="114.81394962167674" opacity="0.8781177895457087"></circle><circle r="7.086398142665362" cx="392.4214124604709" cy="121.5170032105423" opacity="0.6632630432244021"></circle><circle r="6.5475842782970775" cx="176.10912873711524" cy="400.95133694347356" opacity="0.38086110587369415"></circle><circle r="5.358708261510722" cx="201.5995284915556" cy="151.32869173984753" opacity="0.8711913743308969"></circle><circle r="3.4065042053889485" cx="357.45779302030036" cy="760.6231707299539" opacity="0.827583502716289"></circle><circle r="3.740067354035075" cx="612.1233462719744" cy="441.618840348824" opacity="0.9086889275846657"></circle><circle r="3.2353827992033546" cx="319.19776348263895" cy="638.7354423326774" opacity="0.6619104018912826"></circle><circle r="6.565543836984809" cx="589.7179316195201" cy="167.73803173993633" opacity="0.3562815887405897"></circle><circle r="5.214287412196267" cx="128.51762950129944" cy="507.15286201028243" opacity="0.7961125030322864"></circle><circle r="7.021790213308861" cx="588.2212199608663" cy="298.8438327088859" opacity="0.22158744743005848"></circle><circle r="4.9512816637727335" cx="486.3260843522392" cy="625.8300699017333" opacity="0.7153833191457286"></circle><circle r="6.956031045943646" cx="757.3916279303388" cy="702.209114147696" opacity="0.9346187248514393"></circle><circle r="5.062089681502538" cx="673.4907717345742" cy="219.65350108680386" opacity="0.7793316588172989"></circle><circle r="5.679630954998016" cx="692.2880039836547" cy="241.10848855393897" opacity="0.8025708061128767"></circle><circle r="5.293149081808778" cx="508.5376142735102" cy="42.617051105300845" opacity="0.552072004124477"></circle><circle r="2.8428684851208783" cx="685.9682485968204" cy="724.2705086265036" opacity="0.8419019359828763"></circle><circle r="6.159229430085389" cx="183.21732838465792" cy="676.3398876042421" opacity="0.637979233773444"></circle><circle r="4.582840467444147" cx="446.6765722694085" cy="466.90948190349894" opacity="0.19967054892571676"></circle><circle r="5.748752048909083" cx="662.8987328344666" cy="746.4009031611149" opacity="0.5234478713507661"></circle><circle r="3.380878586229442" cx="631.9781837760077" cy="438.8045573617683" opacity="0.20183716685933878"></circle><circle r="4.836446860425121" cx="364.02515235468985" cy="155.47057881546831" opacity="0.20226922245623674"></circle><circle r="4.923626664909207" cx="59.246864079050106" cy="213.12988324394303" opacity="0.7943224008625691"></circle><circle r="5.084125796261429" cx="639.809199081802" cy="74.76017494458127" opacity="0.42319601950827135"></circle><circle r="4.982552528547605" cx="284.99994981291894" cy="590.9721133604742" opacity="0.3080598928508793"></circle><circle r="3.4715706932236188" cx="148.16239467107567" cy="23.360338547593948" opacity="0.17134809205771717"></circle><circle r="8.61729174103165" cx="223.88048443256568" cy="123.29992093653341" opacity="0.35106718073231524"></circle><circle r="4.8372094737050455" cx="344.97704266671377" cy="584.7302920140618" opacity="0.32351340848868404"></circle><circle r="4.5381028639565955" cx="634.7105660774855" cy="344.2078894252963" opacity="0.6843144188273292"></circle><circle r="6.8166079625062475" cx="141.016554998891" cy="695.638025814575" opacity="0.2795469949672694"></circle><circle r="8.127957488436127" cx="610.6008615601841" cy="95.60425414529895" opacity="0.46172226420717644"></circle><circle r="4.70440194509164" cx="678.9273704816543" cy="144.49837194174" opacity="0.35665536458967584"></circle><circle r="6.333082636925491" cx="260.6437562513571" cy="55.86919637381595" opacity="0.2852448683132568"></circle><circle r="4.987684277893161" cx="413.57504914156993" cy="93.04079667273312" opacity="0.8655979696331454"></circle><circle r="5.002950642977076" cx="314.76308861739705" cy="539.9985066204833" opacity="0.5256698117471306"></circle><circle r="4.2490428896497345" cx="358.20954781758337" cy="297.3865038419781" opacity="0.7575447063438266"></circle><circle r="5.5487753511423" cx="406.9826008759893" cy="482.32459470599434" opacity="0.6148040051963097"></circle><circle r="6.032079339566883" cx="14.106582030796472" cy="351.38431273685677" opacity="0.9722981917781466"></circle><circle r="6.530058364209167" cx="116.95862244182986" cy="282.1931421907298" opacity="0.4001302333767509"></circle><circle r="5.072943662824047" cx="702.2065301658699" cy="98.3449466867038" opacity="0.9464386327691242"></circle><circle r="5.5839387021071145" cx="741.0035542058903" cy="239.68066693325997" opacity="0.6622145316419784"></circle><circle r="5.117819943993377" cx="16.55149149011185" cy="242.14046725653347" opacity="0.7031619288142947"></circle><circle r="7.926274897702778" cx="186.00399327573183" cy="538.683986473607" opacity="0.18252888952754398"></circle><circle r="6.598133666434952" cx="40.46992979252658" cy="152.29190959423232" opacity="0.968675999627468"></circle><circle r="4.352206669835349" cx="261.6215754523025" cy="23.42145736384958" opacity="0.30049053691875527"></circle><circle r="8.3412610210618" cx="237.84342956559217" cy="239.17617781339504" opacity="0.4006825314400463"></circle><circle r="4.658266137369047" cx="185.5162962260913" cy="9.825570186092763" opacity="0.9999059021585531"></circle><circle r="5.3888521641144855" cx="698.1436294370287" cy="121.59275978338685" opacity="0.9632149942351496"></circle><circle r="3.254174754107832" cx="25.79328177480895" cy="744.824123742872" opacity="0.6812617895316415"></circle><circle r="7.382434362615973" cx="41.92432907320743" cy="715.7220879487444" opacity="0.149992790563379"></circle><circle r="5.160275062500585" cx="406.1983133533008" cy="17.87536583361579" opacity="0.15411809116432104"></circle><circle r="5.884678202356849" cx="267.0495200226209" cy="449.93397254890056" opacity="0.5371083329264025"></circle><circle r="4.430944278417047" cx="475.0592160306347" cy="683.8789833027398" opacity="0.8377888176005288"></circle><circle r="4.703494412760976" cx="663.7874761833492" cy="785.1994824057692" opacity="0.8040351195559047"></circle><circle r="3.916850959319266" cx="292.6146702917394" cy="8.215680247974168" opacity="0.5878174907690584"></circle><circle r="4.428272028074064" cx="60.01353643499491" cy="180.18618328847128" opacity="0.6510373465556963"></circle><circle r="8.98825282129142" cx="261.56738558759974" cy="110.30729959793665" opacity="0.2581040411779867"></circle><circle r="4.561629297040728" cx="348.1775192307273" cy="181.78175492051966" opacity="0.7312488627962668"></circle><circle r="6.5146532943278554" cx="415.3072280031167" cy="370.5894323433013" opacity="0.7551637935021345"></circle><circle r="4.250320770867485" cx="88.33216758487482" cy="429.27591153473406" opacity="0.8898829222045777"></circle><circle r="9.465417472911955" cx="23.494204684442984" cy="600.4393809720027" opacity="0.18406251160933232"></circle><circle r="5.614626183058887" cx="785.6785681851876" cy="161.57011964209647" opacity="0.7365744707438034"></circle><circle r="3.9356729428870127" cx="619.2526181507451" cy="23.999285596784308" opacity="0.785346782589881"></circle><circle r="5.765400386095065" cx="131.18745124414997" cy="728.7872683542107" opacity="0.43220364790915367"></circle><circle r="5.378209789905715" cx="537.4652635516353" cy="67.92340828870455" opacity="0.7026281759906102"></circle><circle r="7.833038611064212" cx="654.6573663085795" cy="662.9359538132053" opacity="0.6239486291733082"></circle><circle r="5.2289692894317845" cx="50.90238284152992" cy="665.1314942713047" opacity="0.12625153214176799"></circle><circle r="5.082478348138587" cx="376.6568958669784" cy="743.5299120262172" opacity="0.6716565847672387"></circle><circle r="4.257094953499083" cx="229.13519815547087" cy="429.9062488541346" opacity="0.8816285428157553"></circle><circle r="5.158560547775521" cx="469.7050036315254" cy="450.3190560429736" opacity="0.6542712026188167"></circle><circle r="6.066572187284891" cx="399.2840526013262" cy="680.6215019008615" opacity="0.47147614696584716"></circle><circle r="5.966749498539705" cx="45.72294974517403" cy="346.13309958247675" opacity="0.3519960421714772"></circle><circle r="4.636552557089766" cx="471.13890098333695" cy="763.9788847138976" opacity="0.45202401540713044"></circle><circle r="6.980336987250265" cx="394.1165131102214" cy="170.01453669038685" opacity="0.33123691204076366"></circle><circle r="4.62576372235269" cx="441.6963455687191" cy="346.20023950189864" opacity="0.6278692675124775"></circle><circle r="5.4285723203506295" cx="454.86422851675275" cy="379.45990178828737" opacity="0.12069084974059871"></circle><circle r="3.334018353147677" cx="134.51330135418138" cy="115.78173308196743" opacity="0.9823565727089157"></circle><circle r="5.5178576293883665" cx="114.57149164471134" cy="483.043562248877" opacity="0.8194639571858587"></circle><circle r="4.71376604622948" cx="637.6592533795144" cy="749.8332578112932" opacity="0.7492350270710786"></circle><circle r="4.37578221636019" cx="630.4874963063195" cy="519.9032689153132" opacity="0.9114886203024579"></circle><circle r="8.96218698088803" cx="247.86129948278912" cy="293.0436922312119" opacity="0.32748800144217516"></circle><circle r="6.1244484702098" cx="390.4843697065627" cy="216.68043819558918" opacity="0.6055468721295623"></circle><circle r="4.616530972111544" cx="756.3465723158259" cy="271.64375715419754" opacity="0.3737939633547559"></circle><circle r="4.694659177004873" cx="254.90420117112484" cy="636.4423591848335" opacity="0.26524397440107483"></circle><circle r="3.767978847341517" cx="414.3592896426013" cy="766.3832364476166" opacity="0.999967464942734"></circle><circle r="7.226104402745189" cx="494.53703378608776" cy="74.43340523772689" opacity="0.7836527642625283"></circle><circle r="4.133483969879859" cx="464.7013832010511" cy="656.8992824121589" opacity="0.5495758430484841"></circle><circle r="3.360031218353457" cx="723.3002486413482" cy="142.60073656038193" opacity="0.8375579811396974"></circle><circle r="5.367629686481415" cx="566.5879302490422" cy="230.14920347300665" opacity="0.9125028216505744"></circle><circle r="4.482505678446224" cx="448.71631462537476" cy="627.3831166593147" opacity="0.2684166033373494"></circle><circle r="3.88705814704662" cx="766.6572704328387" cy="786.5273874548401" opacity="0.5533535025339317"></circle><circle r="5.588012605654391" cx="98.91875755781352" cy="664.4564891620565" opacity="0.831155972076147"></circle><circle r="7.115623580308505" cx="782.3960505596067" cy="418.52052029356713" opacity="0.46908202472071747"></circle><circle r="3.8844204256749975" cx="776.0222450839444" cy="238.22597431264472" opacity="0.5359183007674306"></circle><circle r="8.654165421743656" cx="531.342865806635" cy="641.6235241469521" opacity="0.3963251507327298"></circle><circle r="5.629590134223248" cx="327.1602319096558" cy="334.4167857408814" opacity="0.317381730718045"></circle><circle r="6.71375441364555" cx="111.7250478318213" cy="349.44220028125505" opacity="0.2256791145358362"></circle><circle r="7.725340748385356" cx="68.81249253629964" cy="607.1439765978984" opacity="0.3113868141734827"></circle><circle r="5.255644172533003" cx="283.51401991113454" cy="550.6581393819298" opacity="0.2435009452823958"></circle><circle r="6.919831535042322" cx="17.36660100283058" cy="414.84489813864434" opacity="0.2722709773763457"></circle><circle r="9.08364919753641" cx="382.37354829126855" cy="69.42551491051945" opacity="0.9045656800250986"></circle><circle r="5.235593891169815" cx="379.74083282150616" cy="708.7632234764827" opacity="0.19840854310268627"></circle><circle r="3.149686365370198" cx="512.9453046968904" cy="247.12659836442742" opacity="0.37938340670851134"></circle><circle r="5.515404215845977" cx="785.8288681659043" cy="726.6975286469178" opacity="0.3281181017826031"></circle><circle r="3.210995391559565" cx="224.7144969340764" cy="666.5910374088919" opacity="0.6054284632618078"></circle><circle r="6.137967893220919" cx="326.8381582019634" cy="492.42849883087985" opacity="0.9324866516431858"></circle><circle r="6.495661114779816" cx="600.7411679876087" cy="480.72952185589844" opacity="0.588257843879128"></circle><circle r="4.90390968180766" cx="261.5085126551063" cy="588.7985195926708" opacity="0.5804033692134911"></circle><circle r="8.746004722348545" cx="306.86375428088616" cy="399.52647282706243" opacity="0.5679011890251616"></circle><circle r="5.275375736067393" cx="164.9393291053471" cy="498.24737039970654" opacity="0.5129431828781343"></circle><circle r="7.027805791888358" cx="390.7165495461336" cy="449.54372436769086" opacity="0.798240278702201"></circle><circle r="3.301494454250249" cx="73.646390903651" cy="96.37636816330802" opacity="0.6363619184789673"></circle><circle r="4.788004892931383" cx="110.42495965195465" cy="74.72073111435131" opacity="0.4200723239821602"></circle><circle r="5.935291859879666" cx="39.9841173232321" cy="763.2558001614046" opacity="0.43879848022509516"></circle><circle r="6.069638606336351" cx="396.2854859271154" cy="338.05560676105" opacity="0.2260519802895413"></circle><circle r="6.20021653153775" cx="713.1577515707477" cy="475.90847706542013" opacity="0.27359211081121415"></circle><circle r="6.644193006842401" cx="745.9686132583711" cy="478.4238457251783" opacity="0.33446911310828775"></circle><circle r="7.140369432449793" cx="583.3377760794264" cy="385.3435115837875" opacity="0.6409594405976533"></circle><circle r="3.830207927651079" cx="689.822987803484" cy="566.5074714511447" opacity="0.37170424765552246"></circle><circle r="6.546312571708257" cx="617.7663677823039" cy="645.7363271659693" opacity="0.7809429299686238"></circle><circle r="4.909204094808751" cx="151.09576704244648" cy="373.7699790294797" opacity="0.792770729682984"></circle><circle r="7.110182621148567" cx="785.4925253680333" cy="690.212049217588" opacity="0.3720996444607476"></circle><circle r="7.600306272187151" cx="106.0620313483838" cy="701.9107027582431" opacity="0.28720532543850785"></circle><circle r="5.137578147521159" cx="448.44731001328796" cy="179.95121008217734" opacity="0.9442376414978892"></circle><circle r="3.2374152748149783" cx="636.2852765784929" cy="463.6282585877302" opacity="0.28842398910413447"></circle><circle r="6.213358098049422" cx="313.19123921700594" cy="251.05935581620895" opacity="0.27242830652458605"></circle><circle r="5.251819789560389" cx="364.477197038697" cy="545.6887606742152" opacity="0.9542830406970572"></circle><circle r="6.073539996613478" cx="405.4266484136568" cy="737.3363448650755" opacity="0.9757521057859386"></circle><circle r="6.053380021550515" cx="367.31460984071225" cy="663.3954037150054" opacity="0.20938607371627604"></circle><circle r="7.802812273004495" cx="621.5370366144836" cy="720.5311948830633" opacity="0.47734839152243635"></circle><circle r="6.83464361649594" cx="330.78287751732694" cy="18.61119081788033" opacity="0.9394806084409076"></circle><circle r="4.909334035295338" cx="508.19638885989923" cy="690.4260419545136" opacity="0.8412866809429987"></circle><circle r="4.049875905899723" cx="726.032751000314" cy="789.3191831595752" opacity="0.982489422998595"></circle><circle r="4.453422333987714" cx="106.89650534940506" cy="100.1496576685214" opacity="0.5669449138874361"></circle><circle r="5.508931430162502" cx="517.9246589598479" cy="337.2497474991158" opacity="0.8316157091247154"></circle><circle r="6.793711243733642" cx="471.5840958242653" cy="593.8924404837538" opacity="0.9056198459178026"></circle><circle r="3.732553572484471" cx="10.776934316286333" cy="787.54308797538" opacity="0.15792437216999022"></circle><circle r="7.974080488870287" cx="570.5579719725635" cy="510.0705603049881" opacity="0.5577624810350337"></circle><circle r="6.26840141167561" cx="19.4229868105989" cy="677.907697715021" opacity="0.1160119111364665"></circle><circle r="7.594332323262176" cx="654.4197868241456" cy="596.3779491817745" opacity="0.7600769394118425"></circle><circle r="5.783422684290396" cx="260.39582608031935" cy="666.4459083042718" opacity="0.13703153877154978"></circle><circle r="4.950714003916087" cx="711.7436131275929" cy="220.26764164726472" opacity="0.7234826967177934"></circle><circle r="5.206641565631718" cx="571.8088240822109" cy="434.62530251568785" opacity="0.11265208051282458"></circle><circle r="3.4577371032179274" cx="751.4995153136879" cy="769.1515084904544" opacity="0.1372468800133018"></circle><circle r="6.204843091680669" cx="152.415377181348" cy="785.0802042851659" opacity="0.5960354657661254"></circle><circle r="9.400280458628385" cx="717.3560909007244" cy="634.0983295030187" opacity="0.9199265163756579"></circle><circle r="3.3472175885395727" cx="123.88828670207474" cy="322.9034864861174" opacity="0.5724809736261036"></circle><circle r="5.350226657779025" cx="343.5812221972193" cy="238.02732823475853" opacity="0.46416511696284946"></circle><circle r="3.22635539517501" cx="707.855113598228" cy="764.280392698225" opacity="0.6767283666906133"></circle><circle r="4.095404897048583" cx="7.981865761521494" cy="481.6005434650056" opacity="0.5118073428824934"></circle><circle r="6.819643174252922" cx="184.8408229873243" cy="218.20981595597067" opacity="0.8658414919692383"></circle><circle r="3.6310803236110925" cx="231.8257780345965" cy="583.1916221535827" opacity="0.20326071591233047"></circle><circle r="5.593282458282574" cx="328.7919173672549" cy="780.0053311815516" opacity="0.6777189310788286"></circle><circle r="5.88916299213656" cx="206.49209260213033" cy="459.9189880073245" opacity="0.4129136776468385"></circle><circle r="5.881279133629179" cx="187.0053122562064" cy="326.48490257181936" opacity="0.21858533541470865"></circle><circle r="6.25763680087538" cx="754.1077156753586" cy="19.111555955830642" opacity="0.8518901861997153"></circle><circle r="6.168374130364566" cx="577.270155852067" cy="69.89976889895368" opacity="0.7785344971502335"></circle><circle r="9.592678870874831" cx="218.12809421982962" cy="736.6680918470671" opacity="0.47340454116384634"></circle><circle r="5.858459365138459" cx="442.60330551182795" cy="688.6680508209602" opacity="0.8139801641619379"></circle><circle r="9.693447982375684" cx="148.5911542969931" cy="246.5776735536258" opacity="0.7501369380591872"></circle><circle r="4.85317482706318" cx="333.6348695176341" cy="746.4104483805687" opacity="0.12526398217711154"></circle><circle r="5.47278839388391" cx="689.3547930545071" cy="775.921987515218" opacity="0.38530639162552416"></circle><circle r="5.368690662427356" cx="521.522027481544" cy="442.86966451907807" opacity="0.5929263797434425"></circle><circle r="5.5273954942812455" cx="709.7851452871439" cy="72.85364000324422" opacity="0.48123615697304034"></circle><circle r="4.386258282245732" cx="53.63126302894214" cy="265.853386838073" opacity="0.4371967883614082"></circle><circle r="5.5494825187436145" cx="17.934166004336976" cy="16.170840598862302" opacity="0.6069487255208166"></circle><circle r="8.480772934986337" cx="20.426110755672372" cy="281.3512336944851" opacity="0.44868149205887087"></circle><circle r="3.847180807481764" cx="684.7995900500179" cy="59.49095337793188" opacity="0.6052898763977769"></circle><circle r="7.185081800829531" cx="219.8457789829546" cy="197.15078671582455" opacity="0.3192394506874727"></circle><circle r="6.1990112026443835" cx="564.1452903721713" cy="727.2285628623864" opacity="0.6079151207410767"></circle><circle r="5.325309126194032" cx="308.06327015510857" cy="198.59104419163535" opacity="0.3540591132994816"></circle><circle r="5.9754577691038335" cx="417.7636121125891" cy="195.0427605031733" opacity="0.153803120739753"></circle><circle r="4.837356359967277" cx="594.7471512620973" cy="445.1300786429955" opacity="0.8724133798918146"></circle><circle r="6.432423739233917" cx="525.3860836180042" cy="97.72293729418338" opacity="0.9417282304962251"></circle><circle r="5.202236257781467" cx="544.3920985380369" cy="374.77258189479693" opacity="0.6920655315242925"></circle><circle r="4.144399721727256" cx="682.203882391679" cy="179.2449139580891" opacity="0.8989753598911459"></circle><circle r="6.51177898939863" cx="595.965132149901" cy="741.9299921261211" opacity="0.5309231097730568"></circle><circle r="4.899860288758603" cx="17.566072874395093" cy="442.9354095085679" opacity="0.9918577086685724"></circle><circle r="7.251869440861222" cx="549.5462578505817" cy="160.8621895422312" opacity="0.5007020570705737"></circle><circle r="4.234283803371071" cx="657.2610048171523" cy="426.5975481038258" opacity="0.7501330716415099"></circle><circle r="10.961553573623974" cx="767.8460422902732" cy="542.5939581977593" opacity="0.48694701413842856"></circle><circle r="5.967753601983539" cx="633.6492223555175" cy="315.56478869379316" opacity="0.43307174092207246"></circle><circle r="3.814805136612678" cx="657.3768907249449" cy="303.9326499216209" opacity="0.995920398298283"></circle><circle r="6.029124742170442" cx="705.9525865202744" cy="412.1215995341902" opacity="0.459935672153565"></circle><circle r="7.347748235873466" cx="355.5447827622471" cy="338.99778202396914" opacity="0.9078011510299079"></circle><circle r="2.8917997236782598" cx="10.749456749656716" cy="763.8887451080195" opacity="0.13890609268563425"></circle><circle r="5.406732428862849" cx="472.34715566242465" cy="267.7846549098766" opacity="0.41977212726164725"></circle><circle r="5.444488913353322" cx="560.6357303406622" cy="401.88789155543293" opacity="0.5252239703282644"></circle><circle r="6.153135475078795" cx="199.1400132662213" cy="369.15378625327423" opacity="0.7788456007121585"></circle><circle r="3.7947949245289037" cx="366.37597842487145" cy="216.4389325775972" opacity="0.574286168513396"></circle><circle r="7.937895000691089" cx="782.3625835219037" cy="483.5314134511937" opacity="0.5299704600125903"></circle><circle r="3.6747154263244703" cx="154.5952736513425" cy="332.8833503431503" opacity="0.35021616401289046"></circle><circle r="5.497706682648699" cx="23.972550617642465" cy="45.63859967257186" opacity="0.4922963734712814"></circle><circle r="4.822450488537874" cx="694.209828387216" cy="346.9185921812801" opacity="0.39743555881516013"></circle><circle r="7.0141968317876575" cx="744.1676835489809" cy="318.2519947581202" opacity="0.9971808569793131"></circle><circle r="5.4728691532159806" cx="709.709673697295" cy="182.02762976582667" opacity="0.5507916245898594"></circle><circle r="3.851606466520855" cx="179.64556484909767" cy="579.5189551880014" opacity="0.41806510497183147"></circle><circle r="4.9366430168193345" cx="411.189064596319" cy="301.5263907896389" opacity="0.2883277246073003"></circle><circle r="8.17585562008387" cx="312.9055946068983" cy="596.7867617050113" opacity="0.42501635069550825"></circle><circle r="4.228833470095684" cx="82.18330861726619" cy="475.2632360450619" opacity="0.1802980379274068"></circle><circle r="5.8137069872535925" cx="214.95344021691935" cy="14.204878010976017" opacity="0.1726109904636981"></circle><circle r="3.2245789716268716" cx="631.2781358851005" cy="176.50926290223452" opacity="0.6949576651483991"></circle><circle r="3.9577390659349145" cx="410.2950305019747" cy="589.9429351532754" opacity="0.8420130729181"></circle><circle r="4.8710077361276465" cx="146.02584375849182" cy="532.5913044641645" opacity="0.5474571736167801"></circle><circle r="5.9130859451374" cx="40.73306456224887" cy="389.6861185697489" opacity="0.9036023188374389"></circle><circle r="7.461448835940391" cx="220.70416559938096" cy="44.27795127065371" opacity="0.991306485199617"></circle><circle r="5.126931245144453" cx="383.95283158812055" cy="529.0738466725339" opacity="0.7073049317394016"></circle><circle r="3.7606759604459215" cx="235.46602337407856" cy="482.50176685849345" opacity="0.6140342296217409"></circle><circle r="5.752084799166048" cx="422.47021295197146" cy="454.35082180131997" opacity="0.7564165543119833"></circle><circle r="3.701722556815427" cx="351.78268272252654" cy="638.7588875593107" opacity="0.6302037429557495"></circle><circle r="8.284648558413377" cx="771.6546608602968" cy="650.3587059766242" opacity="0.4813928112558983"></circle><circle r="5.081079284495603" cx="28.593237833152397" cy="314.1784516622441" opacity="0.21546890702913354"></circle><circle r="6.524011383641225" cx="151.45374014166794" cy="50.38198119906438" opacity="0.2095057172945996"></circle><circle r="4.5013527854772875" cx="655.7702625311498" cy="199.84468915301304" opacity="0.30244530322507235"></circle><circle r="3.9098593147382634" cx="451.3784912121661" cy="14.960174549253779" opacity="0.5744523930380265"></circle><circle r="4.729003160093838" cx="199.47170332860384" cy="646.9027879233705" opacity="0.8554294616361131"></circle><circle r="5.598454034321801" cx="98.65063271269574" cy="256.23260667186673" opacity="0.8792997270841534"></circle><circle r="5.856979724879121" cx="87.6760697512301" cy="143.337286776057" opacity="0.7958662169001129"></circle><circle r="5.367403590019528" cx="444.0262568719118" cy="737.9056918767245" opacity="0.8886380643474019"></circle><circle r="2.8690614009407596" cx="614.1046582082782" cy="190.7069486289985" opacity="0.18272371266318868"></circle><circle r="6.173564775785946" cx="484.3549274005908" cy="20.295951479337436" opacity="0.7866771914600797"></circle><circle r="4.844539600106605" cx="290.58368610815404" cy="740.0170613333378" opacity="0.27757028988612564"></circle><circle r="4.75139152142379" cx="122.06452106343991" cy="33.578902068660824" opacity="0.19980790082973857"></circle><circle r="6.857044741161105" cx="500.9694991497466" cy="480.40382529159024" opacity="0.10615344452508058"></circle><circle r="6.523646267796718" cx="50.48247918364201" cy="437.7583364477856" opacity="0.26206914498619777"></circle><circle r="5.294207441906536" cx="82.96832474416226" cy="76.58058090319493" opacity="0.8664166506704986"></circle><circle r="4.913503297952291" cx="610.1166246101163" cy="610.9465639924256" opacity="0.15366537648413808"></circle><circle r="6.2963023041996" cx="303.8325445733264" cy="113.25367610263868" opacity="0.7144904735657498"></circle><circle r="7.317744670132923" cx="586.3769581766718" cy="695.99935310068" opacity="0.2979059589176478"></circle><circle r="6.288577703098126" cx="276.30132251754054" cy="213.52515743521897" opacity="0.8143216638665672"></circle><circle r="2.9573156886390577" cx="602.0215189068756" cy="5.936846619443895" opacity="0.7447916765042881"></circle><circle r="4.242955245930879" cx="640.3296089607676" cy="39.710539136345346" opacity="0.9255256376843126"></circle><circle r="6.9038734052628845" cx="544.5601279671276" cy="204.17523834038064" opacity="0.1571038387462834"></circle><circle r="5.61405028816187" cx="195.38840537465134" cy="249.41209172359984" opacity="0.7342743349036727"></circle><circle r="3.5008586001537334" cx="730.4330330924507" cy="757.2888829787531" opacity="0.5184840073691244"></circle><circle r="4.468068021529979" cx="764.2419413316098" cy="179.65188216252224" opacity="0.48895417456331747"></circle><circle r="6.985830690523615" cx="236.51201185133235" cy="512.4486625711071" opacity="0.7756809296443962"></circle><circle r="3.844345970793905" cx="99.60665766987165" cy="13.991785573184236" opacity="0.8584103063969889"></circle><circle r="3.08178379025016" cx="30.40173905249873" cy="787.4482821538355" opacity="0.12907168164750987"></circle><circle r="5.085235947178833" cx="271.27882912145367" cy="148.19131727891633" opacity="0.7594251808266628"></circle><circle r="3.7225333893254717" cx="184.84099485647232" cy="430.69742206331796" opacity="0.8129764492135202"></circle><circle r="3.3044232071427917" cx="679.2994846149207" cy="261.258742377851" opacity="0.7631786785266677"></circle><circle r="4.187319591916611" cx="125.15759505742288" cy="136.19333391584885" opacity="0.23421312787454548"></circle><circle r="5.312155807395736" cx="57.71810134976518" cy="740.3052122444515" opacity="0.24073618380500825"></circle><circle r="3.144435447460689" cx="83.32194826587916" cy="755.1718801486597" opacity="0.7486914785019619"></circle><circle r="5.613964758347237" cx="440.09108922619237" cy="317.3744089846857" opacity="0.5156620055770602"></circle><circle r="3.5205655343775835" cx="394.1471862318316" cy="791.9888664133841" opacity="0.558041136733983"></circle><circle r="4.665308992631171" cx="601.5349980404284" cy="527.7688566583688" opacity="0.28148322603527054"></circle><circle r="7.071766320752437" cx="268.46380039324976" cy="329.56255212390965" opacity="0.2927376053253555"></circle><circle r="2.854265586004252" cx="158.8977809511344" cy="132.83469945250425" opacity="0.17660645369819977"></circle><circle r="6.1732060863511204" cx="120.68046028965855" cy="180.18721569642042" opacity="0.3446966026598193"></circle><circle r="5.567183978299241" cx="108.46908665488371" cy="385.493644158008" opacity="0.20759595419617044"></circle><circle r="9.33170489609424" cx="226.5585617135396" cy="337.69868749199657" opacity="0.16493489140518203"></circle><circle r="5.2563925202337245" cx="472.9208748862071" cy="712.1550931613881" opacity="0.5933822003659458"></circle><circle r="6.667794698126629" cx="248.61977638888078" cy="367.48846605478394" opacity="0.603511456883195"></circle><circle r="6.985359114690608" cx="172.4234034149756" cy="636.711066703792" opacity="0.5068176648893753"></circle><circle r="4.94593050704481" cx="664.6863920318939" cy="20.44135819183954" opacity="0.14878423646963057"></circle><circle r="6.262799344507126" cx="529.1338437059447" cy="735.1175932209312" opacity="0.9061947353279128"></circle><circle r="5.304703637002861" cx="236.61720993778613" cy="160.58447562979373" opacity="0.35879852748022034"></circle><circle r="7.44042947894966" cx="476.16981363378113" cy="223.32769464320842" opacity="0.16031796746172172"></circle><circle r="4.920214167545256" cx="176.5944845045806" cy="28.62814134271092" opacity="0.41153141295351015"></circle><circle r="4.740267976268226" cx="789.5233949271072" cy="206.60897863113294" opacity="0.999268467965699"></circle><circle r="6.140755312948238" cx="337.3771797586242" cy="557.783680572506" opacity="0.6086110852790383"></circle><circle r="6.976631363539651" cx="510.8519103147356" cy="767.8308243917106" opacity="0.9359268942115931"></circle><circle r="5.478650130417225" cx="695.9091398604828" cy="497.0818923495211" opacity="0.1229260132362879"></circle><circle r="8.009709956073971" cx="51.540347092014095" cy="528.2604952573757" opacity="0.5734740924958931"></circle><circle r="5.30205930291023" cx="387.99454974495023" cy="769.6712266129413" opacity="0.693571870269789"></circle><circle r="3.9814655051696217" cx="371.71265873670626" cy="635.1159744709993" opacity="0.24705730332925263"></circle><circle r="5.261079985712882" cx="305.9303603270368" cy="565.5800819435115" opacity="0.8422710230092015"></circle><circle r="5.413581026601781" cx="544.3199974619079" cy="240.74236976467705" opacity="0.43820969036697177"></circle><circle r="3.9092756978730856" cx="643.0514958801128" cy="399.521201892823" opacity="0.18447087664420453"></circle><circle r="5.3005355207259335" cx="525.7431526702424" cy="224.76871580434945" opacity="0.22490399768953737"></circle><circle r="6.32097179205731" cx="609.0815242769398" cy="365.8597259414519" opacity="0.3825902635259629"></circle><circle r="5.084039536019752" cx="751.2844283345901" cy="63.10268494283222" opacity="0.4860809164684782"></circle><circle r="7.571829943631068" cx="413.7966796342971" cy="235.5925818657404" opacity="0.8672684219268888"></circle><circle r="6.095718284655701" cx="742.7638463345492" cy="163.55211773324314" opacity="0.7638133602344446"></circle><circle r="5.210572071585947" cx="656.9320195674946" cy="172.1409211107868" opacity="0.5376657317799306"></circle><circle r="4.758113036770485" cx="94.79030227573351" cy="455.6489188993501" opacity="0.41354262009929565"></circle><circle r="4.810246400228242" cx="217.1121037305432" cy="544.3901303229427" opacity="0.8890388672163629"></circle><circle r="9.084658768217828" cx="91.82811030861694" cy="519.6103197857167" opacity="0.7986502752358667"></circle><circle r="5.750392486780189" cx="392.1722173093938" cy="652.8674781346816" opacity="0.13352146850830848"></circle><circle r="3.3070368607718517" cx="739.3067164568272" cy="126.83813818816492" opacity="0.7977261936625131"></circle><circle r="6.754574217801034" cx="122.87342294967577" cy="613.4169729969359" opacity="0.5908342585859094"></circle><circle r="3.962550637053048" cx="763.6370103832719" cy="123.45549984328554" opacity="0.45004982809136374"></circle><circle r="9.236919384253948" cx="185.24840100677042" cy="59.05409559600308" opacity="0.4759218697284965"></circle><circle r="7.852896054405331" cx="297.4339437573944" cy="364.19489252054495" opacity="0.53866231980433"></circle><circle r="9.524744227757415" cx="542.6874091718801" cy="692.6618859842305" opacity="0.4252166077434266"></circle><circle r="5.044142269188825" cx="345.77790823072223" cy="524.0350035975976" opacity="0.46487127890532676"></circle><circle r="3.9692606195365507" cx="613.652077785046" cy="679.4470794784681" opacity="0.3811619389155563"></circle><circle r="5.141760849246062" cx="260.2674274881789" cy="758.6624765583834" opacity="0.4783161077873961"></circle><circle r="5.910982309612892" cx="322.9391888673723" cy="61.724493266271004" opacity="0.36370440445592334"></circle><circle r="7.520695734782455" cx="355.7674299503683" cy="125.12952696991893" opacity="0.3317306306703238"></circle><circle r="3.721425337854536" cx="440.6665017765199" cy="256.316511716902" opacity="0.8280019903952511"></circle><circle r="5.415880151441918" cx="587.2938335973007" cy="417.2865767563731" opacity="0.4909153850842516"></circle><circle r="4.97635835202402" cx="789.9133815946914" cy="782.791107626962" opacity="0.15695215796988535"></circle><circle r="4.386738253058823" cx="616.4869785335628" cy="154.0791270263735" opacity="0.7600212094038377"></circle><circle r="3.559516561626689" cx="64.25970250861535" cy="137.6677192568284" opacity="0.6461710456832221"></circle><circle r="4.946697186114514" cx="335.2101970455947" cy="676.6485762172696" opacity="0.8487101358029034"></circle><circle r="6.179041956217059" cx="724.7402160695221" cy="718.4286189545162" opacity="0.2933111852856933"></circle><circle r="7.119563181384834" cx="267.4321754719172" cy="488.3103901186007" opacity="0.6533130152600434"></circle><circle r="8.643961758272816" cx="134.19344638480706" cy="565.3173615652638" opacity="0.168762491709541"></circle><circle r="6.84140531821349" cx="89.77580119193131" cy="188.88315056718753" opacity="0.8826348399419229"></circle><circle r="4.727706145280669" cx="662.2681463680675" cy="55.193481997970096" opacity="0.9585320500595566"></circle><circle r="3.8710915094424476" cx="600.6512725562396" cy="210.97991069532617" opacity="0.27849126797990387"></circle><circle r="6.429336844630676" cx="225.79394769436672" cy="693.6922465646584" opacity="0.3737893899143129"></circle><circle r="6.45043408514049" cx="295.6261165470931" cy="497.8995615443869" opacity="0.6313616357089865"></circle><circle r="4.561579710263562" cx="599.7029324827715" cy="328.94202099694246" opacity="0.4469466752414025"></circle><circle r="5.933354741117757" cx="377.23590750530644" cy="571.5775559716942" opacity="0.3996990829391125"></circle><circle r="3.5738695377609027" cx="314.20017312070536" cy="734.9423632688395" opacity="0.9151040069460697"></circle><circle r="6.546689692213439" cx="375.5123520154273" cy="486.51238305061594" opacity="0.2945990702202213"></circle><circle r="9.641183219317517" cx="197.4333721424643" cy="285.4536813913394" opacity="0.5845950463794154"></circle><circle r="7.171210134505738" cx="699.8017020016856" cy="701.8262940227207" opacity="0.12366163907178784"></circle><circle r="5.279404226543907" cx="670.2133973032827" cy="448.9238925805166" opacity="0.2667031157210731"></circle><circle r="3.983461014364772" cx="519.054973063853" cy="11.73368373520383" opacity="0.7249225065273557"></circle><circle r="5.622203163220777" cx="533.1036246056424" cy="555.4996768859228" opacity="0.3341131694207637"></circle><circle r="5.599992056705323" cx="672.5039373048285" cy="100.31917933297444" opacity="0.7675391447435015"></circle><circle r="7.655978085420106" cx="470.80438998792994" cy="492.45008866428253" opacity="0.6370979142149256"></circle><circle r="6.830157986819195" cx="749.0644758324236" cy="435.13816542770167" opacity="0.16271570231551127"></circle><circle r="3.2850150633041593" cx="626.8110539756779" cy="416.676765361474" opacity="0.15133833517573342"></circle><circle r="3.407778994522382" cx="238.31384587928554" cy="559.9709554970232" opacity="0.8408377260802464"></circle><circle r="5.882876420516708" cx="729.0658990921145" cy="675.4306767165941" opacity="0.33629566536530536"></circle><circle r="4.613776274591432" cx="568.1108713143207" cy="14.182329944113635" opacity="0.2997602650489007"></circle><circle r="7.067268806009109" cx="574.0501745938246" cy="468.5140325404602" opacity="0.6783620429651362"></circle><circle r="8.136489496970341" cx="714.8415731046098" cy="272.79731858806895" opacity="0.2846301849324352"></circle><circle r="4.548357927193582" cx="567.2895292293998" cy="281.54610162658895" opacity="0.8664820022101876"></circle><circle r="5.831948655509442" cx="80.87277346246121" cy="325.7910701629775" opacity="0.9269917125210447"></circle><circle r="5.88084372113691" cx="540.5044095385699" cy="780.6664809435931" opacity="0.3599906119095325"></circle><circle r="3.9787885502130704" cx="432.4621275038347" cy="606.0376779296355" opacity="0.8066935405426118"></circle><circle r="6.078138896531156" cx="651.0552341934873" cy="548.978251248076" opacity="0.58856013703449"></circle><circle r="4.932741238034089" cx="451.7456687004005" cy="525.9712330767725" opacity="0.5380495201758075"></circle><circle r="6.560487764845908" cx="556.697760027389" cy="316.92289111495495" opacity="0.9450900145093368"></circle><circle r="6.307088218471604" cx="620.5003453126084" cy="780.2873679030332" opacity="0.8931356901870008"></circle><circle r="4.859935765553354" cx="384.66477861738133" cy="619.7344773568531" opacity="0.4609440001347387"></circle><circle r="5.976722568749412" cx="570.1551422150953" cy="102.42434038978458" opacity="0.9290391751153857"></circle><circle r="8.10371486730778" cx="420.38268262099234" cy="52.184751008327716" opacity="0.5749679962065156"></circle><circle r="6.686848326930338" cx="116.43891464285205" cy="219.4407176235603" opacity="0.34797850194031665"></circle><circle r="10.348683170614589" cx="436.2194263645693" cy="137.54077939461163" opacity="0.4591779803270316"></circle><circle r="7.860397684570154" cx="158.1752707025906" cy="600.1786952361491" opacity="0.8447976122973134"></circle></g></svg>